# MagicaVoxel @ Ephtracy

# group
o 

# material
mtllib gate_corner_R.mtl
usemtl palette

# normals
vn -1 0 0
vn 1 0 0
vn 0 0 1
vn 0 0 -1
vn 0 -1 0
vn 0 1 0

# texcoords
vt 0.283203 0.5
vt 0.306641 0.5
vt 0.310547 0.5

# verts
v -0.9 0 0.6
v -0.9 0 0.1
v -0.9 0.4 0.6
v -0.9 0.4 0.4
v -0.9 0.4 0.3
v -0.9 0.4 0.1
v -0.9 3.1 0.4
v -0.9 3.1 0.3
v -0.7 0.4 0.4
v -0.7 0.4 0.3
v -0.7 3 0.4
v -0.7 3 0.3
v -0.5 0.4 0.4
v -0.5 0.4 0.3
v -0.5 3.1 0.4
v -0.5 3.1 0.3
v -0.3 0.4 0.4
v -0.3 0.4 0.3
v -0.3 3 0.4
v -0.3 3 0.3
v -0.3 3.2 0.9
v -0.3 3.2 -0.3
v -0.3 3.3 0.9
v -0.3 3.3 -0.3
v -0.3 3.4 0.9
v -0.3 3.4 -0.3
v -0.2 3.1 0.8
v -0.2 3.1 -0.2
v -0.2 3.2 0.8
v -0.2 3.2 -0.2
v -0.1 0 0.7
v -0.1 0 0.6
v -0.1 0 0.1
v -0.1 0 -0.1
v -0.1 0.4 0.6
v -0.1 0.4 0.1
v -0.1 3.1 0.7
v -0.1 3.1 -0.1
v 0 0 0.8
v 0 0 0.7
v 0 0 -0.1
v 0 0 -0.9
v 0 0.4 -0.1
v 0 0.4 -0.9
v 0 2.9 0.8
v 0 2.9 0.7
v 0.1 2.9 0.8
v 0.1 2.9 0.7
v 0.1 3 0.8
v 0.1 3 0.7
v 0.2 0.4 -0.2
v 0.2 0.4 -0.3
v 0.2 0.4 -0.4
v 0.2 0.4 -0.5
v 0.2 0.4 -0.6
v 0.2 0.4 -0.7
v 0.2 0.4 -0.8
v 0.2 0.4 -0.9
v 0.2 3 -0.2
v 0.2 3 -0.3
v 0.2 3 -0.6
v 0.2 3 -0.7
v 0.2 3.1 -0.4
v 0.2 3.1 -0.5
v 0.2 3.1 -0.8
v 0.2 3.1 -0.9
v 0.4 2.8 0.8
v 0.4 2.8 0.7
v 0.4 2.9 0.8
v 0.4 2.9 0.7
v 0.5 0 0.8
v 0.5 0 0.7
v 0.5 2.8 0.8
v 0.5 2.8 0.7
v -0.8 0.4 0.4
v -0.8 0.4 0.3
v -0.8 3.1 0.4
v -0.8 3.1 0.3
v -0.6 0.4 0.4
v -0.6 0.4 0.3
v -0.6 3 0.4
v -0.6 3 0.3
v -0.4 0.4 0.4
v -0.4 0.4 0.3
v -0.4 3.1 0.4
v -0.4 3.1 0.3
v -0.2 0.4 0.4
v -0.2 0.4 0.3
v -0.2 3 0.4
v -0.2 3 0.3
v 0.1 0 0.8
v 0.1 0 0.7
v 0.1 2.8 0.8
v 0.1 2.8 0.7
v 0.2 2.8 0.8
v 0.2 2.8 0.7
v 0.2 2.9 0.8
v 0.2 2.9 0.7
v 0.3 0.4 -0.2
v 0.3 0.4 -0.3
v 0.3 0.4 -0.4
v 0.3 0.4 -0.5
v 0.3 0.4 -0.6
v 0.3 0.4 -0.7
v 0.3 0.4 -0.8
v 0.3 0.4 -0.9
v 0.3 3 -0.2
v 0.3 3 -0.3
v 0.3 3 -0.6
v 0.3 3 -0.7
v 0.3 3.1 -0.4
v 0.3 3.1 -0.5
v 0.3 3.1 -0.8
v 0.3 3.1 -0.9
v 0.5 0 -0.1
v 0.5 0 -0.9
v 0.5 0.4 -0.1
v 0.5 0.4 -0.9
v 0.5 2.9 0.8
v 0.5 2.9 0.7
v 0.5 3 0.8
v 0.5 3 0.7
v 0.6 0 0.8
v 0.6 0 0.7
v 0.6 0 0.6
v 0.6 0 0.5
v 0.6 0 0.1
v 0.6 0 0
v 0.6 2.8 0.5
v 0.6 2.8 0.4
v 0.6 2.8 0.2
v 0.6 2.8 0.1
v 0.6 2.9 0.8
v 0.6 2.9 0.7
v 0.6 2.9 0.6
v 0.6 2.9 0.5
v 0.6 2.9 0.4
v 0.6 2.9 0.2
v 0.6 2.9 0.1
v 0.6 2.9 0
v 0.6 3 0.5
v 0.6 3 0.1
v 0.7 0 0.7
v 0.7 0 0.6
v 0.7 0 0.5
v 0.7 0 0.1
v 0.7 0 0
v 0.7 0 -0.1
v 0.7 2.8 0.5
v 0.7 2.8 0.4
v 0.7 2.8 0.2
v 0.7 2.8 0.1
v 0.7 2.9 0.6
v 0.7 2.9 0.5
v 0.7 2.9 0.4
v 0.7 2.9 0.2
v 0.7 2.9 0.1
v 0.7 2.9 0
v 0.7 3 0.5
v 0.7 3 0.1
v 0.7 3.1 0.7
v 0.7 3.1 -0.1
v 0.8 3.1 0.8
v 0.8 3.1 -0.2
v 0.8 3.2 0.8
v 0.8 3.2 -0.2
v 0.9 3.2 0.9
v 0.9 3.2 -0.3
v 0.9 3.3 0.9
v 0.9 3.3 -0.3
v 0.9 3.4 0.9
v 0.9 3.4 -0.3
v -0.3 3.2 0.9
v -0.3 3.3 0.9
v -0.3 3.4 0.9
v 0.9 3.2 0.9
v 0.9 3.3 0.9
v 0.9 3.4 0.9
v -0.2 3.1 0.8
v -0.2 3.2 0.8
v 0 0 0.8
v 0 2.9 0.8
v 0.1 0 0.8
v 0.1 2.8 0.8
v 0.1 2.9 0.8
v 0.1 3 0.8
v 0.2 2.8 0.8
v 0.2 2.9 0.8
v 0.4 2.8 0.8
v 0.4 2.9 0.8
v 0.5 0 0.8
v 0.5 2.8 0.8
v 0.5 2.9 0.8
v 0.5 3 0.8
v 0.6 0 0.8
v 0.6 2.9 0.8
v 0.8 3.1 0.8
v 0.8 3.2 0.8
v -0.1 0 0.7
v -0.1 3.1 0.7
v 0 0 0.7
v 0 2.9 0.7
v 0.1 0 0.7
v 0.1 2.8 0.7
v 0.1 2.9 0.7
v 0.1 3 0.7
v 0.2 2.8 0.7
v 0.2 2.9 0.7
v 0.4 2.8 0.7
v 0.4 2.9 0.7
v 0.5 0 0.7
v 0.5 2.8 0.7
v 0.5 2.9 0.7
v 0.5 3 0.7
v 0.6 0 0.7
v 0.6 2.9 0.7
v 0.7 0 0.7
v 0.7 3.1 0.7
v -0.9 0 0.6
v -0.9 0.4 0.6
v -0.1 0 0.6
v -0.1 0.4 0.6
v 0.6 0 0.5
v 0.6 2.8 0.5
v 0.7 0 0.5
v 0.7 2.8 0.5
v -0.9 0.4 0.4
v -0.9 3.1 0.4
v -0.8 0.4 0.4
v -0.8 3.1 0.4
v -0.7 0.4 0.4
v -0.7 3 0.4
v -0.6 0.4 0.4
v -0.6 3 0.4
v -0.5 0.4 0.4
v -0.5 3.1 0.4
v -0.4 0.4 0.4
v -0.4 3.1 0.4
v -0.3 0.4 0.4
v -0.3 3 0.4
v -0.2 0.4 0.4
v -0.2 3 0.4
v 0.6 2.8 0.4
v 0.6 2.9 0.4
v 0.7 2.8 0.4
v 0.7 2.9 0.4
v 0.6 2.9 0.1
v 0.6 3 0.1
v 0.7 2.9 0.1
v 0.7 3 0.1
v 0.6 0 0
v 0.6 2.9 0
v 0.7 0 0
v 0.7 2.9 0
v 0.2 0.4 -0.2
v 0.2 3 -0.2
v 0.3 0.4 -0.2
v 0.3 3 -0.2
v 0.2 0.4 -0.4
v 0.2 3.1 -0.4
v 0.3 0.4 -0.4
v 0.3 3.1 -0.4
v 0.2 0.4 -0.6
v 0.2 3 -0.6
v 0.3 0.4 -0.6
v 0.3 3 -0.6
v 0.2 0.4 -0.8
v 0.2 3.1 -0.8
v 0.3 0.4 -0.8
v 0.3 3.1 -0.8
v 0.6 0 0.6
v 0.6 2.9 0.6
v 0.7 0 0.6
v 0.7 2.9 0.6
v 0.6 2.9 0.5
v 0.6 3 0.5
v 0.7 2.9 0.5
v 0.7 3 0.5
v -0.9 0.4 0.3
v -0.9 3.1 0.3
v -0.8 0.4 0.3
v -0.8 3.1 0.3
v -0.7 0.4 0.3
v -0.7 3 0.3
v -0.6 0.4 0.3
v -0.6 3 0.3
v -0.5 0.4 0.3
v -0.5 3.1 0.3
v -0.4 0.4 0.3
v -0.4 3.1 0.3
v -0.3 0.4 0.3
v -0.3 3 0.3
v -0.2 0.4 0.3
v -0.2 3 0.3
v 0.6 2.8 0.2
v 0.6 2.9 0.2
v 0.7 2.8 0.2
v 0.7 2.9 0.2
v -0.9 0 0.1
v -0.9 0.4 0.1
v -0.1 0 0.1
v -0.1 0.4 0.1
v 0.6 0 0.1
v 0.6 2.8 0.1
v 0.7 0 0.1
v 0.7 2.8 0.1
v -0.1 0 -0.1
v -0.1 3.1 -0.1
v 0 0 -0.1
v 0 0.4 -0.1
v 0.5 0 -0.1
v 0.5 0.4 -0.1
v 0.7 0 -0.1
v 0.7 3.1 -0.1
v -0.2 3.1 -0.2
v -0.2 3.2 -0.2
v 0.8 3.1 -0.2
v 0.8 3.2 -0.2
v -0.3 3.2 -0.3
v -0.3 3.3 -0.3
v -0.3 3.4 -0.3
v 0.2 0.4 -0.3
v 0.2 3 -0.3
v 0.3 0.4 -0.3
v 0.3 3 -0.3
v 0.9 3.2 -0.3
v 0.9 3.3 -0.3
v 0.9 3.4 -0.3
v 0.2 0.4 -0.5
v 0.2 3.1 -0.5
v 0.3 0.4 -0.5
v 0.3 3.1 -0.5
v 0.2 0.4 -0.7
v 0.2 3 -0.7
v 0.3 0.4 -0.7
v 0.3 3 -0.7
v 0 0 -0.9
v 0 0.4 -0.9
v 0.2 0.4 -0.9
v 0.2 3.1 -0.9
v 0.3 0.4 -0.9
v 0.3 3.1 -0.9
v 0.5 0 -0.9
v 0.5 0.4 -0.9
v 0 0 0.8
v 0.1 0 0.8
v 0.5 0 0.8
v 0.6 0 0.8
v -0.1 0 0.7
v 0 0 0.7
v 0.1 0 0.7
v 0.5 0 0.7
v 0.6 0 0.7
v 0.7 0 0.7
v -0.9 0 0.6
v -0.1 0 0.6
v 0.6 0 0.6
v 0.7 0 0.6
v 0.6 0 0.5
v 0.7 0 0.5
v -0.9 0 0.1
v -0.1 0 0.1
v 0.6 0 0.1
v 0.7 0 0.1
v 0.6 0 0
v 0.7 0 0
v -0.1 0 -0.1
v 0 0 -0.1
v 0.5 0 -0.1
v 0.7 0 -0.1
v 0 0 -0.9
v 0.5 0 -0.9
v 0.1 2.8 0.8
v 0.2 2.8 0.8
v 0.4 2.8 0.8
v 0.5 2.8 0.8
v 0.1 2.8 0.7
v 0.2 2.8 0.7
v 0.4 2.8 0.7
v 0.5 2.8 0.7
v 0.2 2.9 0.8
v 0.4 2.9 0.8
v 0.2 2.9 0.7
v 0.4 2.9 0.7
v 0.6 2.9 0.6
v 0.7 2.9 0.6
v 0.6 2.9 0.5
v 0.7 2.9 0.5
v 0.6 2.9 0.1
v 0.7 2.9 0.1
v 0.6 2.9 0
v 0.7 2.9 0
v 0.6 3 0.5
v 0.7 3 0.5
v 0.6 3 0.1
v 0.7 3 0.1
v -0.2 3.1 0.8
v 0.8 3.1 0.8
v -0.1 3.1 0.7
v 0.7 3.1 0.7
v -0.1 3.1 -0.1
v 0.7 3.1 -0.1
v -0.2 3.1 -0.2
v 0.8 3.1 -0.2
v -0.3 3.2 0.9
v 0.9 3.2 0.9
v -0.2 3.2 0.8
v 0.8 3.2 0.8
v -0.2 3.2 -0.2
v 0.8 3.2 -0.2
v -0.3 3.2 -0.3
v 0.9 3.2 -0.3
v -0.9 0.4 0.6
v -0.1 0.4 0.6
v -0.9 0.4 0.4
v -0.8 0.4 0.4
v -0.7 0.4 0.4
v -0.6 0.4 0.4
v -0.5 0.4 0.4
v -0.4 0.4 0.4
v -0.3 0.4 0.4
v -0.2 0.4 0.4
v -0.9 0.4 0.3
v -0.8 0.4 0.3
v -0.7 0.4 0.3
v -0.6 0.4 0.3
v -0.5 0.4 0.3
v -0.4 0.4 0.3
v -0.3 0.4 0.3
v -0.2 0.4 0.3
v -0.9 0.4 0.1
v -0.1 0.4 0.1
v 0 0.4 -0.1
v 0.5 0.4 -0.1
v 0.2 0.4 -0.2
v 0.3 0.4 -0.2
v 0.2 0.4 -0.3
v 0.3 0.4 -0.3
v 0.2 0.4 -0.4
v 0.3 0.4 -0.4
v 0.2 0.4 -0.5
v 0.3 0.4 -0.5
v 0.2 0.4 -0.6
v 0.3 0.4 -0.6
v 0.2 0.4 -0.7
v 0.3 0.4 -0.7
v 0.2 0.4 -0.8
v 0.3 0.4 -0.8
v 0 0.4 -0.9
v 0.2 0.4 -0.9
v 0.3 0.4 -0.9
v 0.5 0.4 -0.9
v 0.6 2.8 0.5
v 0.7 2.8 0.5
v 0.6 2.8 0.4
v 0.7 2.8 0.4
v 0.6 2.8 0.2
v 0.7 2.8 0.2
v 0.6 2.8 0.1
v 0.7 2.8 0.1
v 0 2.9 0.8
v 0.1 2.9 0.8
v 0.5 2.9 0.8
v 0.6 2.9 0.8
v 0 2.9 0.7
v 0.1 2.9 0.7
v 0.5 2.9 0.7
v 0.6 2.9 0.7
v 0.6 2.9 0.4
v 0.7 2.9 0.4
v 0.6 2.9 0.2
v 0.7 2.9 0.2
v 0.1 3 0.8
v 0.5 3 0.8
v 0.1 3 0.7
v 0.5 3 0.7
v -0.7 3 0.4
v -0.6 3 0.4
v -0.3 3 0.4
v -0.2 3 0.4
v -0.7 3 0.3
v -0.6 3 0.3
v -0.3 3 0.3
v -0.2 3 0.3
v 0.2 3 -0.2
v 0.3 3 -0.2
v 0.2 3 -0.3
v 0.3 3 -0.3
v 0.2 3 -0.6
v 0.3 3 -0.6
v 0.2 3 -0.7
v 0.3 3 -0.7
v -0.9 3.1 0.4
v -0.8 3.1 0.4
v -0.5 3.1 0.4
v -0.4 3.1 0.4
v -0.9 3.1 0.3
v -0.8 3.1 0.3
v -0.5 3.1 0.3
v -0.4 3.1 0.3
v 0.2 3.1 -0.4
v 0.3 3.1 -0.4
v 0.2 3.1 -0.5
v 0.3 3.1 -0.5
v 0.2 3.1 -0.8
v 0.3 3.1 -0.8
v 0.2 3.1 -0.9
v 0.3 3.1 -0.9
v -0.3 3.4 0.9
v 0.9 3.4 0.9
v -0.3 3.4 -0.3
v 0.9 3.4 -0.3

# faces
f 3/2/1 2/2/1 1/2/1
f 4/2/1 2/2/1 3/2/1
f 5/2/1 2/2/1 4/2/1
f 6/2/1 2/2/1 5/2/1
f 7/3/1 5/3/1 4/3/1
f 8/3/1 5/3/1 7/3/1
f 11/3/1 10/3/1 9/3/1
f 12/3/1 10/3/1 11/3/1
f 15/3/1 14/3/1 13/3/1
f 16/3/1 14/3/1 15/3/1
f 19/3/1 18/3/1 17/3/1
f 20/3/1 18/3/1 19/3/1
f 23/2/1 22/2/1 21/2/1
f 24/2/1 22/2/1 23/2/1
f 25/1/1 24/1/1 23/1/1
f 26/1/1 24/1/1 25/1/1
f 29/2/1 28/2/1 27/2/1
f 30/2/1 28/2/1 29/2/1
f 35/2/1 32/2/1 31/2/1
f 36/2/1 34/2/1 33/2/1
f 37/2/1 35/2/1 31/2/1
f 37/2/1 36/2/1 35/2/1
f 38/2/1 34/2/1 36/2/1
f 38/2/1 36/2/1 37/2/1
f 43/2/1 42/2/1 41/2/1
f 44/2/1 42/2/1 43/2/1
f 45/2/1 40/2/1 39/2/1
f 46/2/1 40/2/1 45/2/1
f 49/2/1 48/2/1 47/2/1
f 50/2/1 48/2/1 49/2/1
f 59/3/1 52/3/1 51/3/1
f 60/3/1 52/3/1 59/3/1
f 61/3/1 56/3/1 55/3/1
f 62/3/1 56/3/1 61/3/1
f 63/3/1 54/3/1 53/3/1
f 64/3/1 54/3/1 63/3/1
f 65/3/1 58/3/1 57/3/1
f 66/3/1 58/3/1 65/3/1
f 69/2/1 68/2/1 67/2/1
f 70/2/1 68/2/1 69/2/1
f 73/2/1 72/2/1 71/2/1
f 74/2/1 72/2/1 73/2/1
f 75/3/2 76/3/2 77/3/2
f 77/3/2 76/3/2 78/3/2
f 79/3/2 80/3/2 81/3/2
f 81/3/2 80/3/2 82/3/2
f 83/3/2 84/3/2 85/3/2
f 85/3/2 84/3/2 86/3/2
f 87/3/2 88/3/2 89/3/2
f 89/3/2 88/3/2 90/3/2
f 91/2/2 92/2/2 93/2/2
f 93/2/2 92/2/2 94/2/2
f 95/2/2 96/2/2 97/2/2
f 97/2/2 96/2/2 98/2/2
f 99/3/2 100/3/2 107/3/2
f 107/3/2 100/3/2 108/3/2
f 103/3/2 104/3/2 109/3/2
f 109/3/2 104/3/2 110/3/2
f 101/3/2 102/3/2 111/3/2
f 111/3/2 102/3/2 112/3/2
f 105/3/2 106/3/2 113/3/2
f 113/3/2 106/3/2 114/3/2
f 115/2/2 116/2/2 117/2/2
f 117/2/2 116/2/2 118/2/2
f 119/2/2 120/2/2 121/2/2
f 121/2/2 120/2/2 122/2/2
f 125/2/2 126/2/2 129/2/2
f 127/2/2 128/2/2 132/2/2
f 123/2/2 124/2/2 133/2/2
f 133/2/2 124/2/2 134/2/2
f 129/2/2 130/2/2 135/2/2
f 125/2/2 129/2/2 135/2/2
f 135/2/2 130/2/2 136/2/2
f 136/2/2 130/2/2 137/2/2
f 131/2/2 132/2/2 138/2/2
f 132/2/2 128/2/2 139/2/2
f 138/2/2 132/2/2 139/2/2
f 139/2/2 128/2/2 140/2/2
f 136/2/2 137/2/2 141/2/2
f 138/2/2 139/2/2 141/2/2
f 137/2/2 138/2/2 141/2/2
f 141/2/2 139/2/2 142/2/2
f 145/2/2 146/2/2 149/2/2
f 149/2/2 146/2/2 150/2/2
f 150/2/2 146/2/2 151/2/2
f 151/2/2 146/2/2 152/2/2
f 143/2/2 144/2/2 153/2/2
f 150/2/2 151/2/2 155/2/2
f 155/2/2 151/2/2 156/2/2
f 147/2/2 148/2/2 158/2/2
f 153/2/2 154/2/2 159/2/2
f 157/2/2 158/2/2 160/2/2
f 153/2/2 159/2/2 161/2/2
f 159/2/2 160/2/2 161/2/2
f 143/2/2 153/2/2 161/2/2
f 160/2/2 158/2/2 162/2/2
f 161/2/2 160/2/2 162/2/2
f 158/2/2 148/2/2 162/2/2
f 163/2/2 164/2/2 165/2/2
f 165/2/2 164/2/2 166/2/2
f 167/2/2 168/2/2 169/2/2
f 169/2/2 168/2/2 170/2/2
f 169/1/2 170/1/2 171/1/2
f 171/1/2 170/1/2 172/1/2
f 176/2/3 174/2/3 173/2/3
f 177/1/3 175/1/3 174/1/3
f 177/2/3 174/2/3 176/2/3
f 178/1/3 175/1/3 177/1/3
f 183/2/3 182/2/3 181/2/3
f 184/2/3 182/2/3 183/2/3
f 185/2/3 182/2/3 184/2/3
f 187/2/3 186/2/3 185/2/3
f 187/2/3 185/2/3 184/2/3
f 188/2/3 186/2/3 187/2/3
f 190/2/3 186/2/3 188/2/3
f 192/2/3 190/2/3 189/2/3
f 193/2/3 186/2/3 190/2/3
f 193/2/3 190/2/3 192/2/3
f 194/2/3 186/2/3 193/2/3
f 195/2/3 192/2/3 191/2/3
f 195/2/3 193/2/3 192/2/3
f 196/2/3 193/2/3 195/2/3
f 197/2/3 180/2/3 179/2/3
f 198/2/3 180/2/3 197/2/3
f 201/2/3 200/2/3 199/2/3
f 202/2/3 200/2/3 201/2/3
f 205/2/3 200/2/3 202/2/3
f 206/2/3 200/2/3 205/2/3
f 207/2/3 204/2/3 203/2/3
f 209/2/3 207/2/3 203/2/3
f 209/2/3 208/2/3 207/2/3
f 210/2/3 208/2/3 209/2/3
f 211/2/3 209/2/3 203/2/3
f 212/2/3 209/2/3 211/2/3
f 214/2/3 200/2/3 206/2/3
f 216/2/3 214/2/3 213/2/3
f 217/2/3 216/2/3 215/2/3
f 218/2/3 200/2/3 214/2/3
f 218/2/3 216/2/3 217/2/3
f 218/2/3 214/2/3 216/2/3
f 221/2/3 220/2/3 219/2/3
f 222/2/3 220/2/3 221/2/3
f 225/2/3 224/2/3 223/2/3
f 226/2/3 224/2/3 225/2/3
f 229/3/3 228/3/3 227/3/3
f 230/3/3 228/3/3 229/3/3
f 233/3/3 232/3/3 231/3/3
f 234/3/3 232/3/3 233/3/3
f 237/3/3 236/3/3 235/3/3
f 238/3/3 236/3/3 237/3/3
f 241/3/3 240/3/3 239/3/3
f 242/3/3 240/3/3 241/3/3
f 245/2/3 244/2/3 243/2/3
f 246/2/3 244/2/3 245/2/3
f 249/2/3 248/2/3 247/2/3
f 250/2/3 248/2/3 249/2/3
f 253/2/3 252/2/3 251/2/3
f 254/2/3 252/2/3 253/2/3
f 257/3/3 256/3/3 255/3/3
f 258/3/3 256/3/3 257/3/3
f 261/3/3 260/3/3 259/3/3
f 262/3/3 260/3/3 261/3/3
f 265/3/3 264/3/3 263/3/3
f 266/3/3 264/3/3 265/3/3
f 269/3/3 268/3/3 267/3/3
f 270/3/3 268/3/3 269/3/3
f 271/2/4 272/2/4 273/2/4
f 273/2/4 272/2/4 274/2/4
f 275/2/4 276/2/4 277/2/4
f 277/2/4 276/2/4 278/2/4
f 279/3/4 280/3/4 281/3/4
f 281/3/4 280/3/4 282/3/4
f 283/3/4 284/3/4 285/3/4
f 285/3/4 284/3/4 286/3/4
f 287/3/4 288/3/4 289/3/4
f 289/3/4 288/3/4 290/3/4
f 291/3/4 292/3/4 293/3/4
f 293/3/4 292/3/4 294/3/4
f 295/2/4 296/2/4 297/2/4
f 297/2/4 296/2/4 298/2/4
f 299/2/4 300/2/4 301/2/4
f 301/2/4 300/2/4 302/2/4
f 303/2/4 304/2/4 305/2/4
f 305/2/4 304/2/4 306/2/4
f 307/2/4 308/2/4 309/2/4
f 309/2/4 308/2/4 310/2/4
f 310/2/4 308/2/4 312/2/4
f 311/2/4 312/2/4 313/2/4
f 312/2/4 308/2/4 314/2/4
f 313/2/4 312/2/4 314/2/4
f 315/2/4 316/2/4 317/2/4
f 317/2/4 316/2/4 318/2/4
f 322/3/4 323/3/4 324/3/4
f 324/3/4 323/3/4 325/3/4
f 319/2/4 320/2/4 326/2/4
f 320/1/4 321/1/4 327/1/4
f 326/2/4 320/2/4 327/2/4
f 327/1/4 321/1/4 328/1/4
f 329/3/4 330/3/4 331/3/4
f 331/3/4 330/3/4 332/3/4
f 333/3/4 334/3/4 335/3/4
f 335/3/4 334/3/4 336/3/4
f 337/2/4 338/2/4 339/2/4
f 337/2/4 339/2/4 341/2/4
f 339/3/4 340/3/4 341/3/4
f 341/3/4 340/3/4 342/3/4
f 337/2/4 341/2/4 343/2/4
f 343/2/4 341/2/4 344/2/4
f 350/2/5 346/2/5 345/2/5
f 351/2/5 346/2/5 350/2/5
f 352/2/5 348/2/5 347/2/5
f 353/2/5 348/2/5 352/2/5
f 356/2/5 351/2/5 350/2/5
f 356/2/5 354/2/5 353/2/5
f 356/2/5 353/2/5 352/2/5
f 356/2/5 352/2/5 351/2/5
f 356/2/5 350/2/5 349/2/5
f 357/2/5 354/2/5 356/2/5
f 358/2/5 354/2/5 357/2/5
f 359/2/5 356/2/5 355/2/5
f 359/2/5 357/2/5 356/2/5
f 361/2/5 359/2/5 355/2/5
f 361/2/5 360/2/5 359/2/5
f 362/2/5 360/2/5 361/2/5
f 363/2/5 360/2/5 362/2/5
f 364/2/5 360/2/5 363/2/5
f 365/2/5 363/2/5 362/2/5
f 367/2/5 365/2/5 362/2/5
f 367/2/5 366/2/5 365/2/5
f 368/2/5 366/2/5 367/2/5
f 369/2/5 366/2/5 368/2/5
f 370/2/5 366/2/5 369/2/5
f 371/2/5 369/2/5 368/2/5
f 372/2/5 369/2/5 371/2/5
f 377/2/5 374/2/5 373/2/5
f 378/2/5 374/2/5 377/2/5
f 379/2/5 376/2/5 375/2/5
f 380/2/5 376/2/5 379/2/5
f 383/2/5 382/2/5 381/2/5
f 384/2/5 382/2/5 383/2/5
f 387/2/5 386/2/5 385/2/5
f 388/2/5 386/2/5 387/2/5
f 391/2/5 390/2/5 389/2/5
f 392/2/5 390/2/5 391/2/5
f 395/2/5 394/2/5 393/2/5
f 396/2/5 394/2/5 395/2/5
f 399/2/5 398/2/5 397/2/5
f 400/2/5 398/2/5 399/2/5
f 401/2/5 399/2/5 397/2/5
f 402/2/5 398/2/5 400/2/5
f 403/2/5 401/2/5 397/2/5
f 403/2/5 402/2/5 401/2/5
f 404/2/5 398/2/5 402/2/5
f 404/2/5 402/2/5 403/2/5
f 407/2/5 406/2/5 405/2/5
f 408/2/5 406/2/5 407/2/5
f 409/2/5 407/2/5 405/2/5
f 410/2/5 406/2/5 408/2/5
f 411/2/5 409/2/5 405/2/5
f 411/2/5 410/2/5 409/2/5
f 412/2/5 406/2/5 410/2/5
f 412/2/5 410/2/5 411/2/5
f 413/2/6 414/2/6 415/2/6
f 415/2/6 414/2/6 416/2/6
f 416/2/6 414/2/6 417/2/6
f 417/2/6 414/2/6 418/2/6
f 418/2/6 414/2/6 419/2/6
f 419/2/6 414/2/6 420/2/6
f 420/2/6 414/2/6 421/2/6
f 421/2/6 414/2/6 422/2/6
f 416/2/6 417/2/6 424/2/6
f 424/2/6 417/2/6 425/2/6
f 418/2/6 419/2/6 426/2/6
f 426/2/6 419/2/6 427/2/6
f 420/2/6 421/2/6 428/2/6
f 428/2/6 421/2/6 429/2/6
f 422/2/6 414/2/6 430/2/6
f 428/2/6 429/2/6 431/2/6
f 429/2/6 430/2/6 431/2/6
f 424/2/6 425/2/6 431/2/6
f 426/2/6 427/2/6 431/2/6
f 427/2/6 428/2/6 431/2/6
f 423/2/6 424/2/6 431/2/6
f 425/2/6 426/2/6 431/2/6
f 430/2/6 414/2/6 432/2/6
f 431/2/6 430/2/6 432/2/6
f 433/2/6 434/2/6 435/2/6
f 435/2/6 434/2/6 436/2/6
f 433/2/6 435/2/6 437/2/6
f 436/2/6 434/2/6 438/2/6
f 433/2/6 437/2/6 439/2/6
f 437/2/6 438/2/6 439/2/6
f 438/2/6 434/2/6 440/2/6
f 439/2/6 438/2/6 440/2/6
f 433/2/6 439/2/6 441/2/6
f 440/2/6 434/2/6 442/2/6
f 433/2/6 441/2/6 443/2/6
f 441/2/6 442/2/6 443/2/6
f 442/2/6 434/2/6 444/2/6
f 443/2/6 442/2/6 444/2/6
f 433/2/6 443/2/6 445/2/6
f 444/2/6 434/2/6 446/2/6
f 433/2/6 445/2/6 447/2/6
f 445/2/6 446/2/6 447/2/6
f 446/2/6 434/2/6 448/2/6
f 447/2/6 446/2/6 448/2/6
f 433/2/6 447/2/6 449/2/6
f 449/2/6 447/2/6 450/2/6
f 448/2/6 434/2/6 451/2/6
f 451/2/6 434/2/6 452/2/6
f 453/2/6 454/2/6 455/2/6
f 455/2/6 454/2/6 456/2/6
f 457/2/6 458/2/6 459/2/6
f 459/2/6 458/2/6 460/2/6
f 461/2/6 462/2/6 465/2/6
f 465/2/6 462/2/6 466/2/6
f 463/2/6 464/2/6 467/2/6
f 467/2/6 464/2/6 468/2/6
f 469/2/6 470/2/6 471/2/6
f 471/2/6 470/2/6 472/2/6
f 473/2/6 474/2/6 475/2/6
f 475/2/6 474/2/6 476/2/6
f 477/3/6 478/3/6 481/3/6
f 481/3/6 478/3/6 482/3/6
f 479/3/6 480/3/6 483/3/6
f 483/3/6 480/3/6 484/3/6
f 485/3/6 486/3/6 487/3/6
f 487/3/6 486/3/6 488/3/6
f 489/3/6 490/3/6 491/3/6
f 491/3/6 490/3/6 492/3/6
f 493/3/6 494/3/6 497/3/6
f 497/3/6 494/3/6 498/3/6
f 495/3/6 496/3/6 499/3/6
f 499/3/6 496/3/6 500/3/6
f 501/3/6 502/3/6 503/3/6
f 503/3/6 502/3/6 504/3/6
f 505/3/6 506/3/6 507/3/6
f 507/3/6 506/3/6 508/3/6
f 509/1/6 510/1/6 511/1/6
f 511/1/6 510/1/6 512/1/6
